<svg width="65" height="49" viewBox="0 0 65 49" fill="none" xmlns="http://www.w3.org/2000/svg">
<g clip-path="url(#clip0_17_64)">
<path d="M0 32.4327C0.0832 32.0097 0.1716 31.5868 0.247 31.1613C0.4784 29.8537 1.1518 28.8918 2.3946 28.2806C4.6072 27.1948 6.9472 26.4702 9.3756 26.1194C11.297 25.8435 12.5476 24.9022 13.3354 23.1949C13.2522 23.0995 13.1508 23.0015 13.065 22.8932C12.3448 21.9802 11.4842 21.1395 10.9356 20.1388C9.2352 17.0441 8.0808 13.7766 8.2628 10.1893C8.437 6.78248 9.6668 3.85795 12.5034 1.74064C16.4164 -1.17873 24.3672 -0.580415 27.261 4.74253C27.2896 4.79669 27.3338 4.84053 27.3936 4.92048C30.9374 3.72127 34.4734 3.72643 37.9808 5.08037C38.3864 4.50011 38.753 3.89664 39.2002 3.35764C41.4466 0.662637 44.4418 -0.221942 47.8634 0.0669004C50.9444 0.324795 53.5444 1.52916 55.2942 4.11327C56.5162 5.91337 57.0388 7.94301 57.057 10.1093C57.096 14.3878 55.6166 18.1634 53.1362 21.614C52.8346 22.0344 52.468 22.429 52.0676 22.7539C51.675 23.0737 51.6438 23.329 51.9142 23.7339C52.6994 24.9228 53.6302 25.7919 55.185 26.024C57.6108 26.3851 59.9482 27.0917 62.2076 28.0717C63.9418 28.8222 64.7322 30.1245 64.8752 31.886C64.948 32.7705 64.9844 33.6603 65 34.55C65.0156 35.4397 64.6386 35.7956 63.7416 35.7956C57.7122 35.7956 51.6802 35.7931 45.6508 35.7931C44.1168 35.7931 42.5802 35.7931 41.0436 35.7931C41.0306 35.8601 41.015 35.9297 40.9994 35.9994C41.5272 36.1361 42.0498 36.3037 42.5828 36.4017C45.6014 36.9639 48.5394 37.7531 51.3708 38.9574C53.599 39.9091 54.6208 41.5415 54.7326 43.8291C54.7742 44.6775 54.821 45.5234 54.834 46.3719C54.8496 47.3829 54.5064 47.7078 53.4716 47.7078C44.1636 47.7078 34.853 47.7078 25.5424 47.7078C20.8884 47.7078 16.2318 47.7078 11.5778 47.7078C10.4598 47.7078 10.1062 47.4009 10.166 46.3074C10.2362 44.9896 10.3402 43.6692 10.5352 42.3642C10.7354 41.0103 11.5492 40.0483 12.7894 39.3958C15.2152 38.1218 17.8256 37.3817 20.488 36.786C21.333 36.5977 22.191 36.4687 23.036 36.2831C23.3688 36.2108 23.6834 36.0587 24.0058 35.9452C23.9902 35.8936 23.9772 35.8421 23.9642 35.7905C22.2404 35.7905 20.5166 35.7905 18.7928 35.7905C12.9948 35.7905 7.1994 35.7853 1.4014 35.8008C0.8008 35.8034 0.3328 35.6641 0 35.1664C0 34.256 0 33.3431 0 32.4327ZM52.7878 45.6962C52.7592 45.1753 52.6968 44.7059 52.7124 44.2365C52.7644 42.4493 51.948 41.312 50.2346 40.6286C47.6762 39.6099 45.0554 38.8362 42.3384 38.403C40.7394 38.1502 39.3406 37.5416 38.3604 36.3114C37.4842 35.2154 36.7744 33.9826 36.0646 32.7705C35.7292 32.1954 35.9086 31.7647 36.4832 31.3934C37.7728 30.5552 38.818 29.4798 39.6734 28.2316C42.0238 24.7964 43.316 21.0286 43.2848 16.8662C43.2666 14.6818 42.8974 12.5671 41.6832 10.6947C39.7436 7.70058 36.8524 6.32343 33.3034 6.06811C26.7046 5.59616 21.8348 9.93653 21.7048 16.3994C21.645 19.5147 22.2638 22.4728 23.6184 25.2942C24.7858 27.7287 26.2522 29.9131 28.5844 31.4424C29.0992 31.7802 29.237 32.2883 28.925 32.8015C28.2022 33.9826 27.508 35.1973 26.65 36.2856C25.8232 37.3327 24.6714 38.011 23.3064 38.2792C22.0636 38.5216 20.7922 38.6815 19.5936 39.0606C17.628 39.677 15.7014 40.4094 13.7878 41.1676C13.3614 41.3352 12.9168 41.7478 12.727 42.1579C12.2148 43.2617 12.2512 44.4764 12.2044 45.6962C25.74 45.6962 39.2106 45.6962 52.7878 45.6962ZM39.832 6.03974C40.0348 6.18158 40.2038 6.30022 40.3728 6.42401C41.6676 7.3808 42.7622 8.5078 43.563 9.90816C45.3076 12.9487 45.6248 16.2292 45.1464 19.5895C44.4184 24.701 42.3436 29.1703 38.2928 32.639C38.7712 33.8073 38.7712 33.8073 40.0322 33.8073C47.4136 33.8047 54.795 33.8047 62.1764 33.8047C62.4208 33.8047 62.6652 33.8047 62.9642 33.8047C62.9252 33.2812 62.8576 32.8505 62.8654 32.4198C62.8862 30.9988 62.1998 30.1529 60.84 29.6397C58.76 28.8531 56.6384 28.2548 54.444 27.9015C53.2688 27.7106 52.221 27.2542 51.4904 26.3593C50.7182 25.418 50.0656 24.3735 49.439 23.329C49.0984 22.7616 49.322 22.4057 49.8446 21.9415C50.5752 21.2916 51.3734 20.6572 51.9012 19.8629C54.0384 16.6547 55.3046 13.1705 54.9666 9.27116C54.7482 6.76185 53.7888 4.61874 51.5086 3.23901C49.465 2.00369 47.2238 1.75869 44.9072 2.18422C42.5698 2.6149 40.9266 3.96885 39.832 6.03974ZM25.5008 5.69416C25.3058 5.41306 25.0978 5.07522 24.8482 4.7709C23.439 3.05074 21.5332 2.26416 19.3466 2.05785C15.873 1.7329 12.8908 2.95532 11.2476 6.3389C10.6054 7.65674 10.3246 9.03648 10.2934 10.4781C10.2154 13.9442 11.3984 17.057 13.2028 19.9609C13.6604 20.6985 14.3884 21.2942 15.067 21.8719C15.7274 22.4341 15.8704 22.7307 15.4908 23.525C14.3078 26.006 12.5996 27.7571 9.6044 28.1052C7.5088 28.3502 5.4808 29.0053 3.5802 29.944C3.1954 30.1348 2.7196 30.367 2.548 30.7074C2.0696 31.6616 2.0826 32.7241 2.0592 33.8021C4.9322 33.8021 7.722 33.8021 10.5118 33.8021C15.5454 33.8021 20.5816 33.797 25.6152 33.8098C25.987 33.8098 26.2106 33.7093 26.3484 33.3792C26.4576 33.1187 26.5928 32.8685 26.7046 32.639C26.1612 32.1361 25.6282 31.7209 25.1862 31.2257C21.1848 26.7384 19.3856 21.4954 19.7236 15.569C19.8874 12.7295 20.8468 10.1403 22.8384 8.01522C23.6184 7.1848 24.5622 6.50395 25.5008 5.69416Z" fill="#E8A20D"/>
</g>
<defs>
<clipPath id="clip0_17_64">
<rect width="65" height="49" fill="white"/>
</clipPath>
</defs>
</svg>
