<svg width="166" height="30" viewBox="0 0 166 30" fill="none" xmlns="http://www.w3.org/2000/svg">
<rect width="48" height="30" rx="15" fill="url(#paint0_linear_26_35)"/>
<path d="M21.5124 11.0348C21.5124 11.4283 21.5124 13.183 21.5124 13.183H20V15.8097H21.5124V23.0093H24.619V15.8044H26.7036C26.7036 15.8044 26.8978 14.5442 26.9949 13.167C26.7241 13.167 24.6343 13.167 24.6343 13.167C24.6343 13.167 24.6343 11.641 24.6343 11.3698C24.6343 11.1039 24.9715 10.7424 25.3088 10.7424C25.6409 10.7424 26.346 10.7424 27 10.7424C27 10.3861 27 9.14717 27 8.00928C26.1263 8.00928 25.135 8.00928 24.7007 8.00928C21.4358 8.01459 21.5124 10.6413 21.5124 11.0348Z" fill="white" fill-opacity="0.89"/>
<path d="M44.9456 1.44644C44.6344 1.07309 44.927 0.5 45.3593 0.5H151C159.008 0.5 165.5 6.99187 165.5 15C165.5 23.0081 159.008 29.5 151 29.5H45.3593C44.927 29.5 44.6344 28.9269 44.9456 28.5536C46.1203 27.1444 47.7509 25.0163 49.0901 22.6234C50.4235 20.2409 51.5 17.5406 51.5 15C51.5 12.4594 50.4235 9.75908 49.0901 7.37664C47.7509 4.98372 46.1203 2.85563 44.9456 1.44644Z" fill="white" fill-opacity="0.89" stroke="#4768B7" stroke-linejoin="round"/>
<path d="M79.4648 10.4688H80.7773L83.2441 17.0488L85.7051 10.4688H87.0176L83.7598 19H82.7168L79.4648 10.4688ZM78.8672 10.4688H80.1152L80.332 16.1641V19H78.8672V10.4688ZM86.3672 10.4688H87.6211V19H86.1504V16.1641L86.3672 10.4688ZM90.7383 12.6602V19H89.3203V12.6602H90.7383ZM89.2266 10.9961C89.2266 10.7812 89.2969 10.6035 89.4375 10.4629C89.582 10.3184 89.7812 10.2461 90.0352 10.2461C90.2852 10.2461 90.4824 10.3184 90.627 10.4629C90.7715 10.6035 90.8438 10.7812 90.8438 10.9961C90.8438 11.207 90.7715 11.3828 90.627 11.5234C90.4824 11.6641 90.2852 11.7344 90.0352 11.7344C89.7812 11.7344 89.582 11.6641 89.4375 11.5234C89.2969 11.3828 89.2266 11.207 89.2266 10.9961ZM96.1523 17.6875V10H97.5703V19H96.2871L96.1523 17.6875ZM92.0273 15.9004V15.7773C92.0273 15.2969 92.084 14.8594 92.1973 14.4648C92.3105 14.0664 92.4746 13.7246 92.6895 13.4395C92.9043 13.1504 93.166 12.9297 93.4746 12.7773C93.7832 12.6211 94.1309 12.543 94.5176 12.543C94.9004 12.543 95.2363 12.6172 95.5254 12.7656C95.8145 12.9141 96.0605 13.127 96.2637 13.4043C96.4668 13.6777 96.6289 14.0059 96.75 14.3887C96.8711 14.7676 96.957 15.1895 97.0078 15.6543V16.0469C96.957 16.5 96.8711 16.9141 96.75 17.2891C96.6289 17.6641 96.4668 17.9883 96.2637 18.2617C96.0605 18.5352 95.8125 18.7461 95.5195 18.8945C95.2305 19.043 94.8926 19.1172 94.5059 19.1172C94.123 19.1172 93.7773 19.0371 93.4688 18.877C93.1641 18.7168 92.9043 18.4922 92.6895 18.2031C92.4746 17.9141 92.3105 17.5742 92.1973 17.1836C92.084 16.7891 92.0273 16.3613 92.0273 15.9004ZM93.4395 15.7773V15.9004C93.4395 16.1895 93.4648 16.459 93.5156 16.709C93.5703 16.959 93.6543 17.1797 93.7676 17.3711C93.8809 17.5586 94.0273 17.707 94.207 17.8164C94.3906 17.9219 94.6094 17.9746 94.8633 17.9746C95.1836 17.9746 95.4473 17.9043 95.6543 17.7637C95.8613 17.623 96.0234 17.4336 96.1406 17.1953C96.2617 16.9531 96.3438 16.6836 96.3867 16.3867V15.3262C96.3633 15.0957 96.3145 14.8809 96.2402 14.6816C96.1699 14.4824 96.0742 14.3086 95.9531 14.1602C95.832 14.0078 95.6816 13.8906 95.502 13.8086C95.3262 13.7227 95.1172 13.6797 94.875 13.6797C94.6172 13.6797 94.3984 13.7344 94.2188 13.8438C94.0391 13.9531 93.8906 14.1035 93.7734 14.2949C93.6602 14.4863 93.5762 14.709 93.5215 14.9629C93.4668 15.2168 93.4395 15.4883 93.4395 15.7773ZM100.887 18.3086L102.609 12.6602H104.121L101.578 19.9668C101.52 20.123 101.443 20.293 101.35 20.4766C101.256 20.6602 101.133 20.834 100.98 20.998C100.832 21.166 100.646 21.3008 100.424 21.4023C100.201 21.5078 99.9316 21.5605 99.6152 21.5605C99.4902 21.5605 99.3691 21.5488 99.252 21.5254C99.1387 21.5059 99.0312 21.4844 98.9297 21.4609L98.9238 20.3828C98.9629 20.3867 99.0098 20.3906 99.0645 20.3945C99.123 20.3984 99.1699 20.4004 99.2051 20.4004C99.4395 20.4004 99.6348 20.3711 99.791 20.3125C99.9473 20.2578 100.074 20.168 100.172 20.043C100.273 19.918 100.359 19.75 100.43 19.5391L100.887 18.3086ZM99.9141 12.6602L101.42 17.4062L101.672 18.8945L100.693 19.1465L98.3906 12.6602H99.9141ZM108.41 17.7285V14.7051C108.41 14.4785 108.369 14.2832 108.287 14.1191C108.205 13.9551 108.08 13.8281 107.912 13.7383C107.748 13.6484 107.541 13.6035 107.291 13.6035C107.061 13.6035 106.861 13.6426 106.693 13.7207C106.525 13.7988 106.395 13.9043 106.301 14.0371C106.207 14.1699 106.16 14.3203 106.16 14.4883H104.754C104.754 14.2383 104.814 13.9961 104.936 13.7617C105.057 13.5273 105.232 13.3184 105.463 13.1348C105.693 12.9512 105.969 12.8066 106.289 12.7012C106.609 12.5957 106.969 12.543 107.367 12.543C107.844 12.543 108.266 12.623 108.633 12.7832C109.004 12.9434 109.295 13.1855 109.506 13.5098C109.721 13.8301 109.828 14.2324 109.828 14.7168V17.5352C109.828 17.8242 109.848 18.084 109.887 18.3145C109.93 18.541 109.99 18.7383 110.068 18.9062V19H108.621C108.555 18.8477 108.502 18.6543 108.463 18.4199C108.428 18.1816 108.41 17.9512 108.41 17.7285ZM108.615 15.1445L108.627 16.0176H107.613C107.352 16.0176 107.121 16.043 106.922 16.0938C106.723 16.1406 106.557 16.2109 106.424 16.3047C106.291 16.3984 106.191 16.5117 106.125 16.6445C106.059 16.7773 106.025 16.9277 106.025 17.0957C106.025 17.2637 106.064 17.418 106.143 17.5586C106.221 17.6953 106.334 17.8027 106.482 17.8809C106.635 17.959 106.818 17.998 107.033 17.998C107.322 17.998 107.574 17.9395 107.789 17.8223C108.008 17.7012 108.18 17.5547 108.305 17.3828C108.43 17.207 108.496 17.041 108.504 16.8848L108.961 17.5117C108.914 17.6719 108.834 17.8438 108.721 18.0273C108.607 18.2109 108.459 18.3867 108.275 18.5547C108.096 18.7188 107.879 18.8535 107.625 18.959C107.375 19.0645 107.086 19.1172 106.758 19.1172C106.344 19.1172 105.975 19.0352 105.65 18.8711C105.326 18.7031 105.072 18.4785 104.889 18.1973C104.705 17.9121 104.613 17.5898 104.613 17.2305C104.613 16.8945 104.676 16.5977 104.801 16.3398C104.93 16.0781 105.117 15.8594 105.363 15.6836C105.613 15.5078 105.918 15.375 106.277 15.2852C106.637 15.1914 107.047 15.1445 107.508 15.1445H108.615ZM112.705 14.0137V19H111.293V12.6602H112.623L112.705 14.0137ZM112.453 15.5957L111.996 15.5898C112 15.1406 112.062 14.7285 112.184 14.3535C112.309 13.9785 112.48 13.6562 112.699 13.3867C112.922 13.1172 113.188 12.9102 113.496 12.7656C113.805 12.6172 114.148 12.543 114.527 12.543C114.832 12.543 115.107 12.5859 115.354 12.6719C115.604 12.7539 115.816 12.8887 115.992 13.0762C116.172 13.2637 116.309 13.5078 116.402 13.8086C116.496 14.1055 116.543 14.4707 116.543 14.9043V19H115.125V14.8984C115.125 14.5938 115.08 14.3535 114.99 14.1777C114.904 13.998 114.777 13.8711 114.609 13.7969C114.445 13.7188 114.24 13.6797 113.994 13.6797C113.752 13.6797 113.535 13.7305 113.344 13.832C113.152 13.9336 112.99 14.0723 112.857 14.248C112.729 14.4238 112.629 14.627 112.559 14.8574C112.488 15.0879 112.453 15.334 112.453 15.5957ZM119.408 10V19H117.99V10H119.408ZM123.346 12.6602L120.586 15.7188L119.074 17.2656L118.705 16.0703L119.848 14.6582L121.641 12.6602H123.346ZM121.945 19L119.889 16.0234L120.779 15.0332L123.58 19H121.945ZM127.816 17.7285V14.7051C127.816 14.4785 127.775 14.2832 127.693 14.1191C127.611 13.9551 127.486 13.8281 127.318 13.7383C127.154 13.6484 126.947 13.6035 126.697 13.6035C126.467 13.6035 126.268 13.6426 126.1 13.7207C125.932 13.7988 125.801 13.9043 125.707 14.0371C125.613 14.1699 125.566 14.3203 125.566 14.4883H124.16C124.16 14.2383 124.221 13.9961 124.342 13.7617C124.463 13.5273 124.639 13.3184 124.869 13.1348C125.1 12.9512 125.375 12.8066 125.695 12.7012C126.016 12.5957 126.375 12.543 126.773 12.543C127.25 12.543 127.672 12.623 128.039 12.7832C128.41 12.9434 128.701 13.1855 128.912 13.5098C129.127 13.8301 129.234 14.2324 129.234 14.7168V17.5352C129.234 17.8242 129.254 18.084 129.293 18.3145C129.336 18.541 129.396 18.7383 129.475 18.9062V19H128.027C127.961 18.8477 127.908 18.6543 127.869 18.4199C127.834 18.1816 127.816 17.9512 127.816 17.7285ZM128.021 15.1445L128.033 16.0176H127.02C126.758 16.0176 126.527 16.043 126.328 16.0938C126.129 16.1406 125.963 16.2109 125.83 16.3047C125.697 16.3984 125.598 16.5117 125.531 16.6445C125.465 16.7773 125.432 16.9277 125.432 17.0957C125.432 17.2637 125.471 17.418 125.549 17.5586C125.627 17.6953 125.74 17.8027 125.889 17.8809C126.041 17.959 126.225 17.998 126.439 17.998C126.729 17.998 126.98 17.9395 127.195 17.8223C127.414 17.7012 127.586 17.5547 127.711 17.3828C127.836 17.207 127.902 17.041 127.91 16.8848L128.367 17.5117C128.32 17.6719 128.24 17.8438 128.127 18.0273C128.014 18.2109 127.865 18.3867 127.682 18.5547C127.502 18.7188 127.285 18.8535 127.031 18.959C126.781 19.0645 126.492 19.1172 126.164 19.1172C125.75 19.1172 125.381 19.0352 125.057 18.8711C124.732 18.7031 124.479 18.4785 124.295 18.1973C124.111 17.9121 124.02 17.5898 124.02 17.2305C124.02 16.8945 124.082 16.5977 124.207 16.3398C124.336 16.0781 124.523 15.8594 124.77 15.6836C125.02 15.5078 125.324 15.375 125.684 15.2852C126.043 15.1914 126.453 15.1445 126.914 15.1445H128.021Z" fill="#333333"/>
<defs>
<linearGradient id="paint0_linear_26_35" x1="0" y1="15" x2="48" y2="15" gradientUnits="userSpaceOnUse">
<stop stop-color="#375297"/>
<stop offset="1" stop-color="#4768B7"/>
</linearGradient>
</defs>
</svg>
