<svg width="220" height="64" viewBox="0 0 220 64" fill="none" xmlns="http://www.w3.org/2000/svg">
<rect width="14.0824" height="14.8235" fill="#B9541C"/>
<rect width="14.0824" height="14.8235" fill="#B9541C"/>
<rect width="14.0824" height="14.8235" fill="#B9541C"/>
<rect y="32.6118" width="14.0824" height="14.8235" fill="#B9541C"/>
<rect y="32.6118" width="14.0824" height="14.8235" fill="#B9541C"/>
<rect y="32.6118" width="14.0824" height="14.8235" fill="#B9541C"/>
<rect x="48.1765" width="14.8235" height="14.8235" fill="#B9541C"/>
<rect x="48.1765" width="14.8235" height="14.8235" fill="#B9541C"/>
<rect x="48.1765" width="14.8235" height="14.8235" fill="#B9541C"/>
<rect x="48.1765" y="32.6118" width="14.8235" height="14.8235" fill="#B9541C"/>
<rect x="48.1765" y="32.6118" width="14.8235" height="14.8235" fill="#B9541C"/>
<rect x="48.1765" y="32.6118" width="14.8235" height="14.8235" fill="#B9541C"/>
<rect x="16.3059" width="29.6471" height="14.8235" fill="#B9541C"/>
<rect x="16.3059" width="29.6471" height="14.8235" fill="#B9541C"/>
<rect x="16.3059" width="29.6471" height="14.8235" fill="#B9541C"/>
<rect x="16.3059" y="32.6118" width="29.6471" height="14.8235" fill="#B9541C"/>
<rect x="16.3059" y="32.6118" width="29.6471" height="14.8235" fill="#B9541C"/>
<rect x="16.3059" y="32.6118" width="29.6471" height="14.8235" fill="#B9541C"/>
<rect y="17.0471" width="28.9059" height="13.3412" fill="#B9541C"/>
<rect y="17.0471" width="28.9059" height="13.3412" fill="#B9541C"/>
<rect y="17.0471" width="28.9059" height="13.3412" fill="#B9541C"/>
<rect x="31.1294" y="17.0471" width="31.8706" height="13.3412" fill="#B9541C"/>
<rect x="31.1294" y="17.0471" width="31.8706" height="13.3412" fill="#B9541C"/>
<rect x="31.1294" y="17.0471" width="31.8706" height="13.3412" fill="#B9541C"/>
<rect y="49.6588" width="28.9059" height="14.0824" fill="#B9541C"/>
<rect y="49.6588" width="28.9059" height="14.0824" fill="#B9541C"/>
<rect y="49.6588" width="28.9059" height="14.0824" fill="#B9541C"/>
<rect x="31.1294" y="49.6588" width="31.8706" height="14.0824" fill="#B9541C"/>
<rect x="31.1294" y="49.6588" width="31.8706" height="14.0824" fill="#B9541C"/>
<rect x="31.1294" y="49.6588" width="31.8706" height="14.0824" fill="#B9541C"/>
<path d="M74.6855 11.3594H77.0918L81.6143 23.4229L86.126 11.3594H88.5322L82.5596 27H80.6475L74.6855 11.3594ZM73.5898 11.3594H75.8779L76.2754 21.8008V27H73.5898V11.3594ZM87.3398 11.3594H89.6387V27H86.9424V21.8008L87.3398 11.3594ZM95.7188 11.3594V27H93.0225V11.3594H95.7188ZM103.614 27H100.273L100.295 24.8623H103.614C104.581 24.8623 105.39 24.651 106.042 24.2285C106.701 23.806 107.195 23.2008 107.524 22.4131C107.861 21.6253 108.029 20.6872 108.029 19.5986V18.75C108.029 17.9049 107.933 17.1566 107.739 16.5049C107.553 15.8532 107.274 15.3053 106.901 14.8613C106.536 14.4173 106.085 14.0807 105.548 13.8516C105.018 13.6224 104.406 13.5078 103.711 13.5078H100.209V11.3594H103.711C104.749 11.3594 105.698 11.5348 106.558 11.8857C107.417 12.2295 108.158 12.7272 108.781 13.3789C109.411 14.0306 109.895 14.8112 110.231 15.7207C110.568 16.6302 110.736 17.6471 110.736 18.7715V19.5986C110.736 20.723 110.568 21.7399 110.231 22.6494C109.895 23.5589 109.411 24.3395 108.781 24.9912C108.151 25.6357 107.399 26.1335 106.525 26.4844C105.659 26.8281 104.688 27 103.614 27ZM101.767 11.3594V27H99.0703V11.3594H101.767ZM114.464 11.3594L118.095 18.8252L121.726 11.3594H124.712L119.448 21.2422V27H116.73V21.2422L111.467 11.3594H114.464ZM131.286 13.4434L126.613 27H123.788L129.675 11.3594H131.479L131.286 13.4434ZM135.196 27L130.513 13.4434L130.309 11.3594H132.124L138.032 27H135.196ZM134.971 21.1992V23.3369H126.463V21.1992H134.971ZM152.19 11.3594V27H149.494L142.479 15.7959V27H139.783V11.3594H142.479L149.516 22.585V11.3594H152.19ZM158.099 11.3594V27H155.402V11.3594H158.099ZM167.498 11.3594L161.16 18.8896L157.551 22.7139L157.078 20.0391L159.656 16.8594L164.211 11.3594H167.498ZM164.598 27L159.452 19.5879L161.311 17.751L167.799 27H164.598ZM175.394 13.4434L170.721 27H167.896L173.782 11.3594H175.587L175.394 13.4434ZM179.304 27L174.62 13.4434L174.416 11.3594H176.231L182.14 27H179.304ZM179.078 21.1992V23.3369H170.57V21.1992H179.078ZM81.8184 48.9717C81.8184 48.6494 81.7682 48.363 81.668 48.1123C81.5749 47.8617 81.4066 47.6325 81.1631 47.4248C80.9196 47.2171 80.5758 47.0166 80.1318 46.8232C79.695 46.6227 79.1364 46.4186 78.4561 46.2109C77.7113 45.9818 77.0238 45.7275 76.3936 45.4482C75.7705 45.1618 75.2262 44.8324 74.7607 44.46C74.2952 44.0804 73.9336 43.6471 73.6758 43.1602C73.418 42.666 73.2891 42.0967 73.2891 41.4521C73.2891 40.8148 73.4215 40.2347 73.6865 39.7119C73.9587 39.1891 74.3418 38.738 74.8359 38.3584C75.3372 37.9717 75.9281 37.6745 76.6084 37.4668C77.2887 37.252 78.0407 37.1445 78.8643 37.1445C80.0244 37.1445 81.0234 37.3594 81.8613 37.7891C82.7064 38.2188 83.3545 38.7952 83.8057 39.5186C84.264 40.2419 84.4932 41.0404 84.4932 41.9141H81.8184C81.8184 41.3984 81.7074 40.9437 81.4854 40.5498C81.2705 40.1488 80.9411 39.8337 80.4971 39.6045C80.0602 39.3753 79.5052 39.2607 78.832 39.2607C78.1947 39.2607 77.6647 39.3574 77.2422 39.5508C76.8197 39.7441 76.5046 40.0055 76.2969 40.335C76.0892 40.6644 75.9854 41.0368 75.9854 41.4521C75.9854 41.7458 76.0534 42.0143 76.1895 42.2578C76.3255 42.4941 76.5332 42.7161 76.8125 42.9238C77.0918 43.1243 77.4427 43.3141 77.8652 43.4932C78.2878 43.6722 78.7855 43.8441 79.3584 44.0088C80.2249 44.2666 80.9805 44.5531 81.625 44.8682C82.2695 45.1761 82.8066 45.527 83.2363 45.9209C83.666 46.3148 83.9883 46.7624 84.2031 47.2637C84.418 47.7578 84.5254 48.32 84.5254 48.9502C84.5254 49.609 84.3929 50.2035 84.1279 50.7334C83.863 51.2562 83.4834 51.7038 82.9893 52.0762C82.5023 52.4414 81.915 52.7243 81.2275 52.9248C80.5472 53.1182 79.7881 53.2148 78.9502 53.2148C78.1982 53.2148 77.457 53.1146 76.7266 52.9141C76.0033 52.7135 75.3444 52.4092 74.75 52.001C74.1556 51.5856 73.6829 51.07 73.332 50.4541C72.9811 49.8311 72.8057 49.1042 72.8057 48.2734H75.502C75.502 48.7819 75.5879 49.2152 75.7598 49.5732C75.9388 49.9313 76.1859 50.2249 76.501 50.4541C76.8161 50.6761 77.1813 50.8408 77.5967 50.9482C78.0192 51.0557 78.4704 51.1094 78.9502 51.1094C79.5804 51.1094 80.1068 51.0199 80.5293 50.8408C80.959 50.6618 81.2812 50.4111 81.4961 50.0889C81.7109 49.7666 81.8184 49.3942 81.8184 48.9717ZM91.9805 41.377V43.2676H85.4277V41.377H91.9805ZM87.3184 38.5303H89.9072V49.7881C89.9072 50.1462 89.9574 50.4219 90.0576 50.6152C90.165 50.8014 90.3118 50.9268 90.498 50.9912C90.6842 51.0557 90.9027 51.0879 91.1533 51.0879C91.3324 51.0879 91.5042 51.0771 91.6689 51.0557C91.8337 51.0342 91.9661 51.0127 92.0664 50.9912L92.0771 52.9678C91.8623 53.0322 91.6117 53.0895 91.3252 53.1396C91.0459 53.1898 90.7236 53.2148 90.3584 53.2148C89.764 53.2148 89.2376 53.111 88.7793 52.9033C88.321 52.6885 87.9629 52.3411 87.7051 51.8613C87.4473 51.3815 87.3184 50.7441 87.3184 49.9492V38.5303ZM100.531 50.6689V45.126C100.531 44.7106 100.456 44.3525 100.306 44.0518C100.155 43.751 99.9261 43.5182 99.6182 43.3535C99.3174 43.1888 98.9378 43.1064 98.4795 43.1064C98.057 43.1064 97.6917 43.1781 97.3838 43.3213C97.0758 43.4645 96.8359 43.6579 96.6641 43.9014C96.4922 44.1449 96.4062 44.4206 96.4062 44.7285H93.8281C93.8281 44.2702 93.9391 43.8262 94.1611 43.3965C94.3831 42.9668 94.7054 42.5837 95.1279 42.2471C95.5505 41.9105 96.0553 41.6455 96.6426 41.4521C97.2298 41.2588 97.8887 41.1621 98.6191 41.1621C99.4928 41.1621 100.266 41.3089 100.939 41.6025C101.62 41.8962 102.153 42.3402 102.54 42.9346C102.934 43.5218 103.131 44.2594 103.131 45.1475V50.3145C103.131 50.8444 103.167 51.3206 103.238 51.7432C103.317 52.1585 103.428 52.5202 103.571 52.8281V53H100.918C100.796 52.7207 100.7 52.3662 100.628 51.9365C100.563 51.4997 100.531 51.0771 100.531 50.6689ZM100.907 45.9316L100.929 47.5322H99.0703C98.5905 47.5322 98.168 47.5788 97.8027 47.6719C97.4375 47.7578 97.1331 47.8867 96.8896 48.0586C96.6462 48.2305 96.4635 48.4382 96.3418 48.6816C96.2201 48.9251 96.1592 49.2008 96.1592 49.5088C96.1592 49.8167 96.2308 50.0996 96.374 50.3574C96.5173 50.6081 96.7249 50.805 96.9971 50.9482C97.2764 51.0915 97.613 51.1631 98.0068 51.1631C98.5368 51.1631 98.9987 51.0557 99.3926 50.8408C99.7936 50.6188 100.109 50.3503 100.338 50.0352C100.567 49.7129 100.689 49.4085 100.703 49.1221L101.541 50.2715C101.455 50.5651 101.308 50.8802 101.101 51.2168C100.893 51.5534 100.621 51.8757 100.284 52.1836C99.9548 52.4844 99.5573 52.7314 99.0918 52.9248C98.6335 53.1182 98.1035 53.2148 97.502 53.2148C96.7428 53.2148 96.0661 53.0645 95.4717 52.7637C94.8773 52.4557 94.4118 52.0439 94.0752 51.5283C93.7386 51.0055 93.5703 50.4147 93.5703 49.7559C93.5703 49.14 93.6849 48.5957 93.9141 48.123C94.1504 47.6432 94.4941 47.2422 94.9453 46.9199C95.4036 46.5977 95.9622 46.3542 96.6211 46.1895C97.2799 46.0176 98.0319 45.9316 98.877 45.9316H100.907ZM109.447 50.9482L112.294 41.377H114.979L110.94 53H109.265L109.447 50.9482ZM107.267 41.377L110.167 50.9912L110.307 53H108.631L104.57 41.377H107.267ZM121.554 53.2148C120.694 53.2148 119.917 53.0752 119.223 52.7959C118.535 52.5094 117.948 52.112 117.461 51.6035C116.981 51.0951 116.612 50.4971 116.354 49.8096C116.097 49.1221 115.968 48.3809 115.968 47.5859V47.1562C115.968 46.2467 116.1 45.4232 116.365 44.6855C116.63 43.9479 116.999 43.3177 117.472 42.7949C117.944 42.265 118.503 41.8604 119.147 41.5811C119.792 41.3018 120.49 41.1621 121.242 41.1621C122.073 41.1621 122.8 41.3018 123.423 41.5811C124.046 41.8604 124.562 42.2542 124.97 42.7627C125.385 43.264 125.693 43.862 125.894 44.5566C126.101 45.2513 126.205 46.0176 126.205 46.8555V47.9619H117.225V46.1035H123.648V45.8994C123.634 45.4339 123.541 44.9971 123.369 44.5889C123.204 44.1807 122.95 43.8512 122.606 43.6006C122.263 43.3499 121.804 43.2246 121.231 43.2246C120.802 43.2246 120.419 43.3177 120.082 43.5039C119.753 43.6829 119.477 43.9443 119.255 44.2881C119.033 44.6318 118.861 45.0472 118.739 45.5342C118.625 46.014 118.567 46.5547 118.567 47.1562V47.5859C118.567 48.0944 118.635 48.5671 118.771 49.0039C118.915 49.4336 119.122 49.8096 119.395 50.1318C119.667 50.4541 119.996 50.7083 120.383 50.8945C120.77 51.0736 121.21 51.1631 121.704 51.1631C122.327 51.1631 122.882 51.0378 123.369 50.7871C123.856 50.5365 124.279 50.182 124.637 49.7236L126.001 51.0449C125.75 51.4102 125.424 51.7611 125.023 52.0977C124.622 52.4271 124.132 52.6956 123.552 52.9033C122.979 53.111 122.313 53.2148 121.554 53.2148ZM128.235 36.5H130.824V50.5186L130.577 53H128.235V36.5ZM138.408 47.0811V47.3066C138.408 48.166 138.312 48.9574 138.118 49.6807C137.932 50.3968 137.646 51.0199 137.259 51.5498C136.879 52.0798 136.407 52.4915 135.841 52.7852C135.282 53.0716 134.634 53.2148 133.896 53.2148C133.173 53.2148 132.543 53.0788 132.006 52.8066C131.469 52.5345 131.018 52.1478 130.652 51.6465C130.294 51.1452 130.004 50.5472 129.782 49.8525C129.56 49.1579 129.403 48.3916 129.31 47.5537V46.834C129.403 45.9889 129.56 45.2227 129.782 44.5352C130.004 43.8405 130.294 43.2425 130.652 42.7412C131.018 42.2327 131.465 41.8424 131.995 41.5703C132.532 41.2982 133.159 41.1621 133.875 41.1621C134.62 41.1621 135.275 41.3053 135.841 41.5918C136.414 41.8783 136.89 42.2865 137.27 42.8164C137.649 43.3392 137.932 43.9622 138.118 44.6855C138.312 45.4089 138.408 46.2074 138.408 47.0811ZM135.819 47.3066V47.0811C135.819 46.5583 135.776 46.0677 135.69 45.6094C135.604 45.1439 135.461 44.7357 135.261 44.3848C135.067 44.0339 134.802 43.7581 134.466 43.5576C134.136 43.3499 133.725 43.2461 133.23 43.2461C132.772 43.2461 132.378 43.3249 132.049 43.4824C131.719 43.64 131.444 43.8548 131.222 44.127C131 44.3991 130.824 44.7142 130.695 45.0723C130.574 45.4303 130.491 45.8171 130.448 46.2324V48.1768C130.513 48.7139 130.649 49.208 130.856 49.6592C131.071 50.1032 131.372 50.4613 131.759 50.7334C132.146 50.9984 132.643 51.1309 133.252 51.1309C133.732 51.1309 134.136 51.0342 134.466 50.8408C134.795 50.6475 135.057 50.3789 135.25 50.0352C135.451 49.6842 135.594 49.276 135.68 48.8105C135.773 48.3451 135.819 47.8438 135.819 47.3066ZM143.167 43.8584V53H140.578V41.377H143.017L143.167 43.8584ZM142.705 46.7588L141.867 46.748C141.874 45.9245 141.989 45.1689 142.211 44.4814C142.44 43.7939 142.755 43.2031 143.156 42.709C143.564 42.2148 144.051 41.8353 144.617 41.5703C145.183 41.2982 145.813 41.1621 146.508 41.1621C147.066 41.1621 147.571 41.2409 148.022 41.3984C148.481 41.5488 148.871 41.7959 149.193 42.1396C149.523 42.4834 149.773 42.931 149.945 43.4824C150.117 44.0267 150.203 44.6963 150.203 45.4912V53H147.604V45.4805C147.604 44.9219 147.521 44.4814 147.356 44.1592C147.199 43.8298 146.966 43.597 146.658 43.4609C146.357 43.3177 145.981 43.2461 145.53 43.2461C145.086 43.2461 144.689 43.3392 144.338 43.5254C143.987 43.7116 143.69 43.9658 143.446 44.2881C143.21 44.6104 143.027 44.9827 142.898 45.4053C142.77 45.8278 142.705 46.279 142.705 46.7588ZM155.649 41.377V53H153.061V41.377H155.649ZM153.082 39.8301L155.177 36.5967H158.099L155.177 39.8301H153.082ZM170.28 47.167H166.209V45.0293H170.28C170.989 45.0293 171.562 44.9147 171.999 44.6855C172.436 44.4564 172.755 44.1413 172.955 43.7402C173.163 43.332 173.267 42.8665 173.267 42.3438C173.267 41.8496 173.163 41.3877 172.955 40.958C172.755 40.5212 172.436 40.1702 171.999 39.9053C171.562 39.6403 170.989 39.5078 170.28 39.5078H167.036V53H164.34V37.3594H170.28C171.491 37.3594 172.518 37.5742 173.363 38.0039C174.215 38.4264 174.864 39.0137 175.308 39.7656C175.752 40.5104 175.974 41.3626 175.974 42.3223C175.974 43.332 175.752 44.1986 175.308 44.9219C174.864 45.6452 174.215 46.2002 173.363 46.5869C172.518 46.9736 171.491 47.167 170.28 47.167ZM180.732 43.5898V53H178.144V41.377H180.614L180.732 43.5898ZM184.288 41.3018L184.267 43.708C184.109 43.6794 183.937 43.6579 183.751 43.6436C183.572 43.6292 183.393 43.6221 183.214 43.6221C182.77 43.6221 182.38 43.6865 182.043 43.8154C181.706 43.9372 181.424 44.1162 181.194 44.3525C180.972 44.5817 180.8 44.861 180.679 45.1904C180.557 45.5199 180.485 45.8887 180.464 46.2969L179.873 46.3398C179.873 45.6094 179.945 44.9326 180.088 44.3096C180.231 43.6865 180.446 43.1387 180.732 42.666C181.026 42.1934 181.391 41.8245 181.828 41.5596C182.272 41.2946 182.784 41.1621 183.364 41.1621C183.522 41.1621 183.69 41.1764 183.869 41.2051C184.055 41.2337 184.195 41.266 184.288 41.3018ZM192.076 50.6689V45.126C192.076 44.7106 192.001 44.3525 191.851 44.0518C191.7 43.751 191.471 43.5182 191.163 43.3535C190.862 43.1888 190.483 43.1064 190.024 43.1064C189.602 43.1064 189.237 43.1781 188.929 43.3213C188.621 43.4645 188.381 43.6579 188.209 43.9014C188.037 44.1449 187.951 44.4206 187.951 44.7285H185.373C185.373 44.2702 185.484 43.8262 185.706 43.3965C185.928 42.9668 186.25 42.5837 186.673 42.2471C187.095 41.9105 187.6 41.6455 188.188 41.4521C188.775 41.2588 189.434 41.1621 190.164 41.1621C191.038 41.1621 191.811 41.3089 192.484 41.6025C193.165 41.8962 193.698 42.3402 194.085 42.9346C194.479 43.5218 194.676 44.2594 194.676 45.1475V50.3145C194.676 50.8444 194.712 51.3206 194.783 51.7432C194.862 52.1585 194.973 52.5202 195.116 52.8281V53H192.463C192.341 52.7207 192.244 52.3662 192.173 51.9365C192.108 51.4997 192.076 51.0771 192.076 50.6689ZM192.452 45.9316L192.474 47.5322H190.615C190.135 47.5322 189.713 47.5788 189.348 47.6719C188.982 47.7578 188.678 47.8867 188.435 48.0586C188.191 48.2305 188.008 48.4382 187.887 48.6816C187.765 48.9251 187.704 49.2008 187.704 49.5088C187.704 49.8167 187.776 50.0996 187.919 50.3574C188.062 50.6081 188.27 50.805 188.542 50.9482C188.821 51.0915 189.158 51.1631 189.552 51.1631C190.082 51.1631 190.544 51.0557 190.938 50.8408C191.339 50.6188 191.654 50.3503 191.883 50.0352C192.112 49.7129 192.234 49.4085 192.248 49.1221L193.086 50.2715C193 50.5651 192.853 50.8802 192.646 51.2168C192.438 51.5534 192.166 51.8757 191.829 52.1836C191.5 52.4844 191.102 52.7314 190.637 52.9248C190.178 53.1182 189.648 53.2148 189.047 53.2148C188.288 53.2148 187.611 53.0645 187.017 52.7637C186.422 52.4557 185.957 52.0439 185.62 51.5283C185.284 51.0055 185.115 50.4147 185.115 49.7559C185.115 49.14 185.23 48.5957 185.459 48.123C185.695 47.6432 186.039 47.2422 186.49 46.9199C186.949 46.5977 187.507 46.3542 188.166 46.1895C188.825 46.0176 189.577 45.9316 190.422 45.9316H192.452ZM188.961 39.7334L191.056 36.5H193.978L191.056 39.7334H188.961ZM202.131 51.1523C202.553 51.1523 202.933 51.07 203.27 50.9053C203.613 50.7334 203.889 50.4971 204.097 50.1963C204.312 49.8955 204.43 49.5482 204.451 49.1543H206.89C206.875 49.9062 206.653 50.5902 206.224 51.2061C205.794 51.8219 205.225 52.3125 204.516 52.6777C203.807 53.0358 203.022 53.2148 202.163 53.2148C201.275 53.2148 200.502 53.0645 199.843 52.7637C199.184 52.4557 198.636 52.0332 198.199 51.4961C197.762 50.959 197.433 50.3395 197.211 49.6377C196.996 48.9359 196.889 48.1839 196.889 47.3818V47.0059C196.889 46.2038 196.996 45.4518 197.211 44.75C197.433 44.041 197.762 43.418 198.199 42.8809C198.636 42.3438 199.184 41.9248 199.843 41.624C200.502 41.3161 201.271 41.1621 202.152 41.1621C203.083 41.1621 203.9 41.3483 204.602 41.7207C205.303 42.0859 205.855 42.598 206.256 43.2568C206.664 43.9085 206.875 44.6676 206.89 45.5342H204.451C204.43 45.1045 204.322 44.7178 204.129 44.374C203.943 44.0231 203.678 43.7438 203.334 43.5361C202.997 43.3285 202.593 43.2246 202.12 43.2246C201.597 43.2246 201.164 43.332 200.82 43.5469C200.477 43.7546 200.208 44.041 200.015 44.4062C199.821 44.7643 199.682 45.1689 199.596 45.6201C199.517 46.0641 199.478 46.526 199.478 47.0059V47.3818C199.478 47.8617 199.517 48.3271 199.596 48.7783C199.674 49.2295 199.811 49.6341 200.004 49.9922C200.204 50.3431 200.477 50.626 200.82 50.8408C201.164 51.0485 201.601 51.1523 202.131 51.1523ZM214.001 53.2148C213.142 53.2148 212.365 53.0752 211.67 52.7959C210.982 52.5094 210.395 52.112 209.908 51.6035C209.428 51.0951 209.06 50.4971 208.802 49.8096C208.544 49.1221 208.415 48.3809 208.415 47.5859V47.1562C208.415 46.2467 208.548 45.4232 208.812 44.6855C209.077 43.9479 209.446 43.3177 209.919 42.7949C210.392 42.265 210.95 41.8604 211.595 41.5811C212.239 41.3018 212.938 41.1621 213.689 41.1621C214.52 41.1621 215.247 41.3018 215.87 41.5811C216.493 41.8604 217.009 42.2542 217.417 42.7627C217.832 43.264 218.14 43.862 218.341 44.5566C218.549 45.2513 218.652 46.0176 218.652 46.8555V47.9619H209.672V46.1035H216.096V45.8994C216.081 45.4339 215.988 44.9971 215.816 44.5889C215.652 44.1807 215.397 43.8512 215.054 43.6006C214.71 43.3499 214.252 43.2246 213.679 43.2246C213.249 43.2246 212.866 43.3177 212.529 43.5039C212.2 43.6829 211.924 43.9443 211.702 44.2881C211.48 44.6318 211.308 45.0472 211.187 45.5342C211.072 46.014 211.015 46.5547 211.015 47.1562V47.5859C211.015 48.0944 211.083 48.5671 211.219 49.0039C211.362 49.4336 211.57 49.8096 211.842 50.1318C212.114 50.4541 212.443 50.7083 212.83 50.8945C213.217 51.0736 213.657 51.1631 214.151 51.1631C214.774 51.1631 215.329 51.0378 215.816 50.7871C216.303 50.5365 216.726 50.182 217.084 49.7236L218.448 51.0449C218.198 51.4102 217.872 51.7611 217.471 52.0977C217.07 52.4271 216.579 52.6956 215.999 52.9033C215.426 53.111 214.76 53.2148 214.001 53.2148Z" fill="white"/>
</svg>
